<svg width="112" height="60" viewBox="0 0 112 60" fill="none" xmlns="http://www.w3.org/2000/svg">
<g clip-path="url(#clip0_2101_40027)">
<rect width="112" height="60" fill="white"/>
<g clip-path="url(#clip1_2101_40027)">
<path d="M137 -51H-25V111H137V-51Z" fill="#7642FE"/>
<path d="M76.898 14.0312L61.603 31.7496L61.4485 14.0312H51.2478L44.6018 29.5704C44.6018 29.7064 44.6018 29.8486 44.6018 29.9908C44.6018 35.9535 42.3237 40.8623 38.3546 44.1574L37.5664 46.0585H45.931L54.0329 27.1036L53.7238 42.9086H59.9462L73.1422 27.1036L65.0867 46.0585H76.6259L87.0925 14.0436L76.898 14.0312Z" fill="white"/>
<path d="M81.1562 14H89.0077L104.797 46.0581H94.0092L81.1562 14Z" fill="white"/>
<path d="M25.1008 14H18.1519L7.20312 46.0581H24.7669C35.3293 46.0581 42.3246 39.6564 42.3246 30.009C42.3246 20.3615 35.4777 14 25.1008 14ZM25.3728 38.593H20.5754L25.076 21.496H24.9153C29.4809 21.496 32.6431 24.9272 32.6431 30.0924C32.6431 35.2577 29.7127 38.593 25.3852 38.593H25.3728Z" fill="white"/>
<path d="M93.5638 20.3672V15.4143H94.512L97.4342 18.9804H96.9742V15.4143H98.1063V20.3672H97.1653L94.236 16.8011H94.6959V20.3672H93.5638ZM95.9554 29.4521C95.5639 29.4521 95.203 29.3908 94.8728 29.2681C94.5473 29.1408 94.262 28.9615 94.0167 28.7304C93.7761 28.4993 93.5874 28.228 93.4506 27.9167C93.3185 27.6054 93.2525 27.2634 93.2525 26.8907C93.2525 26.5181 93.3185 26.1761 93.4506 25.8648C93.5874 25.5535 93.7785 25.2822 94.0237 25.0511C94.269 24.82 94.5568 24.6431 94.887 24.5204C95.2172 24.3931 95.5804 24.3294 95.9766 24.3294C96.4153 24.3294 96.8091 24.4025 97.1582 24.5487C97.512 24.695 97.8092 24.9072 98.0497 25.1855L97.3139 25.8648C97.1346 25.6761 96.9389 25.537 96.7266 25.4473C96.5143 25.353 96.2832 25.3058 96.0332 25.3058C95.7926 25.3058 95.5733 25.3436 95.3752 25.419C95.1771 25.4945 95.0049 25.603 94.8587 25.7445C94.7171 25.886 94.6063 26.0535 94.5261 26.2469C94.4506 26.4403 94.4129 26.6549 94.4129 26.8907C94.4129 27.1219 94.4506 27.3341 94.5261 27.5275C94.6063 27.7209 94.7171 27.8908 94.8587 28.037C95.0049 28.1785 95.1747 28.287 95.3681 28.3625C95.5662 28.4379 95.7832 28.4757 96.019 28.4757C96.2455 28.4757 96.4648 28.4403 96.6771 28.3695C96.8941 28.2941 97.104 28.1691 97.3068 27.9945L97.9577 28.8224C97.6889 29.0252 97.3752 29.1809 97.0167 29.2894C96.6629 29.3978 96.3091 29.4521 95.9554 29.4521ZM96.9106 28.6738V26.8129H97.9577V28.8224L96.9106 28.6738Z" fill="white"/>
</g>
</g>
<defs>
<clipPath id="clip0_2101_40027">
<rect width="112" height="60" fill="white"/>
</clipPath>
<clipPath id="clip1_2101_40027">
<rect width="162" height="162" fill="white" transform="translate(-25 -51)"/>
</clipPath>
</defs>
</svg>
