<svg width="35" height="21" viewBox="0 0 35 21" fill="none" xmlns="http://www.w3.org/2000/svg">
<g clip-path="url(#clip0_2443_17199)">
<path d="M22.0974 2.24414H12.9043V18.7428H22.0974V2.24414Z" fill="#FF5F00"/>
<path d="M13.4876 10.4943C13.4876 7.28785 14.976 4.22715 17.4859 2.24499C12.9331 -1.3404 6.33739 -0.553368 2.74769 4.02311C-0.842013 8.57043 -0.0540302 15.1582 4.52794 18.7436C8.35112 21.746 13.6919 21.746 17.5151 18.7436C14.976 16.7614 13.4876 13.7007 13.4876 10.4943Z" fill="#EB001B"/>
<path d="M34.501 10.4943C34.501 16.2951 29.8023 20.9881 23.9946 20.9881C21.6306 20.9881 19.3543 20.2011 17.5156 18.7436C22.0684 15.1582 22.8564 8.57043 19.2667 3.99396C18.7414 3.35267 18.1577 2.74053 17.5156 2.24499C22.0684 -1.3404 28.6933 -0.553368 32.2538 4.02311C33.7131 5.85953 34.501 8.13319 34.501 10.4943Z" fill="#F79E1B"/>
<path d="M33.509 16.9943V16.6443H33.6549V16.5859H33.3047V16.6443H33.4506V16.9943H33.509ZM34.1802 16.9943V16.5859H34.0635L33.9467 16.8776L33.83 16.5859H33.7133V16.9943H33.8008V16.6734L33.9176 16.9359H34.0051L34.1219 16.6734V16.9943H34.1802Z" fill="#F79E1B"/>
</g>
<defs>
<clipPath id="clip0_2443_17199">
<rect width="34" height="20.9877" fill="white" transform="translate(0.5)"/>
</clipPath>
</defs>
</svg>
