<svg width="18" height="23" viewBox="0 0 18 23" fill="none" xmlns="http://www.w3.org/2000/svg">
<g clip-path="url(#clip0_2443_6771)">
<path d="M15.3529 5.65355C15.3529 8.32907 12.8739 11.4855 9.12314 11.4855H5.51022L5.33287 12.6001L4.49001 17.9655H0L2.70114 0.685547H9.97565C12.4252 0.685547 14.3524 2.04539 15.0623 3.93515C15.267 4.48459 15.3656 5.06762 15.3529 5.65355Z" fill="#002991"/>
<path d="M17.9408 10.6223C17.7012 12.0726 16.9512 13.3906 15.825 14.3404C14.6989 15.2902 13.2701 15.8098 11.7945 15.8063H9.28561L8.2413 22.2863H3.77539L4.49007 17.9663L5.33342 12.6009L5.51029 11.4863H9.1232C12.8691 11.4863 15.3529 8.32982 15.3529 5.6543C17.1963 6.60182 18.2709 8.51654 17.9408 10.6223Z" fill="#60CDFF"/>
<path d="M15.3524 5.65386C14.5794 5.25114 13.6421 5.00586 12.6219 5.00586H6.53046L5.50977 11.4859H9.12268C12.8686 11.4859 15.3524 8.32938 15.3524 5.65386Z" fill="#008CFF"/>
</g>
<defs>
<clipPath id="clip0_2443_6771">
<rect width="18" height="21.6" fill="white" transform="translate(0 0.685547)"/>
</clipPath>
</defs>
</svg>
