<svg width="50" height="25" viewBox="0 0 50 25" fill="none" xmlns="http://www.w3.org/2000/svg">
<g clip-path="url(#clip0_2443_11262)">
<path fill-rule="evenodd" clip-rule="evenodd" d="M50.2373 14.5358C50.2373 10.947 48.507 8.11523 45.1998 8.11523C41.8786 8.11523 39.8691 10.947 39.8691 14.5077C39.8691 18.7273 42.2414 20.8582 45.6463 20.8582C47.3069 20.8582 48.5628 20.4797 49.5117 19.9469V17.1432C48.5628 17.6199 47.4744 17.9142 46.0929 17.9142C44.7393 17.9142 43.5392 17.4376 43.3857 15.7834H50.2094C50.2094 15.6012 50.2373 14.8722 50.2373 14.5358ZM43.3438 13.204C43.3438 11.6199 44.3067 10.961 45.1858 10.961C46.037 10.961 46.9441 11.6199 46.9441 13.204H43.3438Z" fill="#635BFF"/>
<path fill-rule="evenodd" clip-rule="evenodd" d="M34.4826 8.11523C33.115 8.11523 32.2359 8.76009 31.7475 9.20869L31.5661 8.33953H28.4961V24.6852L31.9847 23.9422L31.9987 19.975C32.501 20.3395 33.2406 20.8582 34.4686 20.8582C36.9665 20.8582 39.2411 18.8395 39.2411 14.3956C39.2271 10.3302 36.9246 8.11523 34.4826 8.11523ZM33.6453 17.7741C32.822 17.7741 32.3336 17.4797 31.9987 17.1152L31.9847 11.9143C32.3475 11.5077 32.8499 11.2274 33.6453 11.2274C34.9152 11.2274 35.7943 12.6573 35.7943 14.4937C35.7943 16.3722 34.9291 17.7741 33.6453 17.7741Z" fill="#635BFF"/>
<path fill-rule="evenodd" clip-rule="evenodd" d="M23.6953 7.28833L27.1979 6.53132V3.68555L23.6953 4.42853V7.28833Z" fill="#635BFF"/>
<path d="M27.1979 8.35352H23.6953V20.6198H27.1979V8.35352Z" fill="#635BFF"/>
<path fill-rule="evenodd" clip-rule="evenodd" d="M19.9406 9.39127L19.7173 8.35389H16.7031V20.6202H20.1918V12.3071C21.0151 11.2277 22.4105 11.424 22.8431 11.5782V8.35389C22.3966 8.18567 20.7639 7.87726 19.9406 9.39127Z" fill="#635BFF"/>
<path fill-rule="evenodd" clip-rule="evenodd" d="M12.9638 5.3125L9.55888 6.04147L9.54492 17.2704C9.54492 19.3451 11.0939 20.8732 13.1591 20.8732C14.3034 20.8732 15.1407 20.6629 15.6012 20.4105V17.5648C15.1546 17.747 12.9498 18.3919 12.9498 16.3171V11.3405H15.6012V8.35454H12.9498L12.9638 5.3125Z" fill="#635BFF"/>
<path fill-rule="evenodd" clip-rule="evenodd" d="M3.5305 11.9143C3.5305 11.3676 3.97704 11.1573 4.71663 11.1573C5.77717 11.1573 7.11681 11.4797 8.17735 12.0545V8.76009C7.01913 8.29748 5.87486 8.11523 4.71663 8.11523C1.88386 8.11523 0 9.60121 0 12.0825C0 15.9516 5.30272 15.3348 5.30272 17.003C5.30272 17.6479 4.74454 17.8582 3.96309 17.8582C2.80486 17.8582 1.32568 17.3815 0.1535 16.7367V20.0731C1.45127 20.6339 2.763 20.8722 3.96309 20.8722C6.86563 20.8722 8.86112 19.4283 8.86112 16.9189C8.84717 12.7414 3.5305 13.4844 3.5305 11.9143Z" fill="#635BFF"/>
</g>
<defs>
<clipPath id="clip0_2443_11262">
<rect width="50" height="24" fill="white" transform="translate(0 0.685547)"/>
</clipPath>
</defs>
</svg>
