<svg width="66" height="21" viewBox="0 0 66 21" fill="none" xmlns="http://www.w3.org/2000/svg">
<path d="M43.0019 0C38.3218 0 34.1197 2.39647 34.1197 6.79412C34.1197 11.8588 41.5425 12.2047 41.5425 14.7247C41.5425 15.7871 40.2844 16.7506 38.1708 16.7506C35.1514 16.7506 32.8868 15.4165 32.8868 15.4165L31.9306 19.8635C31.9306 19.8635 34.5223 21 37.9947 21C43.1277 21 47.1536 18.5047 47.1536 14.0082C47.1536 8.67176 39.7057 8.32588 39.7057 5.97882C39.7057 5.13882 40.7373 4.22471 42.8509 4.22471C45.2413 4.22471 47.204 5.18824 47.204 5.18824L48.1601 0.889412C48.135 0.889412 45.9962 0 43.0019 0ZM0.12581 0.321176L0 0.963529C0 0.963529 1.96264 1.30941 3.74914 2.02588C6.03889 2.84118 6.18986 3.31059 6.59245 4.76824L10.7945 20.6541H16.4308L25.0614 0.321176H19.4502L13.8894 14.1565L11.6249 2.42118C11.4236 1.08706 10.3668 0.321176 9.05833 0.321176H0.12581ZM27.326 0.321176L22.9226 20.6541H28.2821L32.6603 0.321176H27.326ZM57.1681 0.321176C55.8849 0.321176 55.2055 0.988235 54.7023 2.17412L46.8517 20.6541H52.4628L53.5448 17.5659H60.3889L61.0431 20.6541H66L61.6973 0.321176H57.1681ZM57.8978 5.83059L59.5585 13.4647H55.1048L57.8978 5.83059Z" fill="#1434CB"/>
</svg>
